<svg xmlns="http://www.w3.org/2000/svg" viewBox="0 0 467.48 93.86"><defs><style>.cls-1{opacity:0.11;}.cls-2{fill:#ecb4a1;}</style></defs><title>about bck</title><g id="Layer_2" data-name="Layer 2"><g id="Nav"><g class="cls-1"><path class="cls-2" d="M76.57,93,68.12,73.32H30L21.58,93H0L39.26,2.08H58.89L98.15,93ZM49.14,29.12,37.7,55.51H60.45Z"/><path class="cls-2" d="M148.46,93H108.68V2.08H144A51,51,0,0,1,160,4.29q6.69,2.21,10.08,6a23.52,23.52,0,0,1,6.11,15.86q0,10.66-6.89,15.86A24.68,24.68,0,0,1,166,44.27q-.91.46-3.25,1.49a23.84,23.84,0,0,1,13.46,7.61,21.19,21.19,0,0,1,5,14.37,24.43,24.43,0,0,1-6.5,16.77Q167.18,93,148.46,93ZM129,38.87h9.62q8.45,0,12.54-1.82t4.09-7.86q0-6-3.77-8t-12.74-2H129Zm0,36.92h13.91q8.71,0,13.06-2.14t4.36-8.45q0-6.3-4.62-8.32t-14.75-2H129Z"/><path class="cls-2" d="M274.69,80.41q-13.78,13.45-33.93,13.46T206.83,80.41Q193,67,193,46.93t13.78-33.48Q220.61,0,240.76,0t33.93,13.46q13.78,13.45,13.78,33.48T274.69,80.41ZM267.8,47A29.74,29.74,0,0,0,260,26.26a25.72,25.72,0,0,0-38.35,0A29.74,29.74,0,0,0,213.85,47a29.5,29.5,0,0,0,7.8,20.67,25.85,25.85,0,0,0,38.35,0A29.5,29.5,0,0,0,267.8,47Z"/><path class="cls-2" d="M329.68,69.49a16.6,16.6,0,0,0,13.65,6.3,16.42,16.42,0,0,0,13.59-6.3q5-6.3,5-17.23V2.08H382.2V52.91q0,19.76-10.92,30.36t-28,10.59q-17,0-28-10.66t-11-30.29V2.08h20.28V52.26Q324.61,63.18,329.68,69.49Z"/><path class="cls-2" d="M441.74,19.63V93H421.46V19.63H395.72V2.08h71.76V19.63Z"/></g></g></g></svg>