<svg xmlns="http://www.w3.org/2000/svg" viewBox="0 0 453.57 191.78"><defs><style>.cls-1{opacity:0.14;}.cls-2{fill:#05151f;}</style></defs><title>whatwedo-bck</title><g id="Layer_2" data-name="Layer 2"><g id="Nav"><g class="cls-1"><path class="cls-2" d="M39.91,52.26,56,0H77.22l16,52.26L111.28,0h22L101.53,90.87H86.45L66.56,27.69,46.8,90.87H31.72L0,0H22Z"/><path class="cls-2" d="M200.46,0h20.28V90.87H200.46V55.12H164.32V90.87H144V0h20.28V38h36.14Z"/><path class="cls-2" d="M307.84,90.87l-8.45-19.63H261.3l-8.45,19.63H231.27L270.53,0h19.63l39.26,90.87ZM280.41,27,269,53.43h22.75Z"/><path class="cls-2" d="M371.8,17.55V90.87H351.52V17.55H325.78V0h71.76V17.55Z"/><path class="cls-2" d="M39.91,152.26,56,100H77.22l16,52.26L111.28,100h22l-31.72,90.87H86.45L66.56,127.69,46.8,190.87H31.72L0,100H22Z"/><path class="cls-2" d="M209.56,100v18.07H164.32v18.72H205v17.29H164.32v18.85H211v17.94H144V100Z"/><path class="cls-2" d="M332.8,111.9q13,11.89,13,33.08t-12.67,33.54q-12.68,12.35-38.67,12.35H263.38V100h32.11Q319.79,100,332.8,111.9Zm-14.88,54q7.47-7,7.47-20.41t-7.47-20.6q-7.48-7.22-22.95-7.22H283.66v55.25h12.87Q310.44,172.93,317.91,165.91Z"/><path class="cls-2" d="M439.79,178.33Q426,191.78,405.86,191.78t-33.93-13.46q-13.78-13.45-13.78-33.47t13.78-33.48q13.78-13.45,33.93-13.46t33.93,13.46q13.78,13.45,13.78,33.48T439.79,178.33Zm-6.89-33.41a29.74,29.74,0,0,0-7.8-20.74,25.72,25.72,0,0,0-38.35,0,31.37,31.37,0,0,0,0,41.41,25.85,25.85,0,0,0,38.35,0A29.5,29.5,0,0,0,432.9,144.92Z"/></g></g></g></svg>