<svg xmlns="http://www.w3.org/2000/svg" viewBox="0 0 751.65 93.86"><defs><style>.cls-1{opacity:0.32;}.cls-2{fill:#4a92a1;}</style></defs><title>work-bck</title><g id="Layer_2" data-name="Layer 2"><g id="Nav"><g class="cls-1"><path class="cls-2" d="M81.64,80.41Q67.86,93.86,47.71,93.86T13.78,80.41Q0,67,0,46.93T13.78,13.46Q27.56,0,47.71,0T81.64,13.46Q95.42,26.91,95.42,46.93T81.64,80.41ZM74.75,47a29.74,29.74,0,0,0-7.8-20.74,24.91,24.91,0,0,0-19.17-8.58A24.9,24.9,0,0,0,28.6,26.26,29.74,29.74,0,0,0,20.8,47a29.5,29.5,0,0,0,7.8,20.67,25,25,0,0,0,19.17,8.52,25,25,0,0,0,19.17-8.52A29.5,29.5,0,0,0,74.75,47Z"/><path class="cls-2" d="M136.63,69.49a16.6,16.6,0,0,0,13.65,6.3,16.42,16.42,0,0,0,13.59-6.3q5-6.3,5-17.23V2.08h20.28V52.91q0,19.76-10.92,30.36t-28,10.59q-17,0-28-10.66t-11-30.29V2.08h20.28V52.26Q131.56,63.18,136.63,69.49Z"/><path class="cls-2" d="M283.92,32.24q0,21.84-17.29,28.21l23,32.5h-25L244.53,64h-14V93H210.21V2.08h34.45q21.19,0,30.23,7.15T283.92,32.24ZM259.48,43q3.77-3.38,3.77-10.72t-3.9-10.08q-3.9-2.73-13.65-2.73H230.49V46.41h14.82Q255.71,46.41,259.48,43Z"/><path class="cls-2" d="M367.38,54.34,383.49,2.08h21.19l16,52.26L438.74,2.08h22L429,93H413.91L394,29.77,374.26,93H359.18L327.46,2.08h22Z"/><path class="cls-2" d="M546.52,80.41q-13.78,13.45-33.93,13.46T478.66,80.41Q464.88,67,464.88,46.93t13.78-33.48Q492.43,0,512.59,0t33.93,13.46q13.78,13.45,13.78,33.48T546.52,80.41ZM539.63,47a29.74,29.74,0,0,0-7.8-20.74,25.72,25.72,0,0,0-38.35,0A29.73,29.73,0,0,0,485.68,47a29.49,29.49,0,0,0,7.8,20.67,25.85,25.85,0,0,0,38.35,0A29.5,29.5,0,0,0,539.63,47Z"/><path class="cls-2" d="M651.17,32.24q0,21.84-17.29,28.21l23,32.5h-25L611.78,64h-14V93H577.46V2.08h34.45q21.19,0,30.23,7.15T651.17,32.24ZM626.73,43q3.77-3.38,3.77-10.72t-3.9-10.08q-3.9-2.73-13.65-2.73H597.74V46.41h14.82Q623,46.41,626.73,43Z"/><path class="cls-2" d="M672,2.08h20.28V39.39L726.56,2.08h25.09L715.51,42.25q4.68,6.5,17.29,24.25T751.65,93H728L701.34,57.07l-9.1,10.14V93H672Z"/></g></g></g></svg>